<mxfile host="Electron" modified="2024-07-26T08:00:00.938Z" agent="Mozilla/5.0 (Macintosh; Intel Mac OS X 10_15_7) AppleWebKit/537.36 (KHTML, like Gecko) draw.io/24.6.4 Chrome/124.0.6367.207 Electron/30.0.6 Safari/537.36" etag="uuPKFvziyYsNKgajZkfo" version="24.6.4" type="device">
  <diagram name="第 1 页" id="kYnBXQ82JFIsanpNlorE">
    <mxGraphModel dx="954" dy="727" grid="1" gridSize="10" guides="1" tooltips="1" connect="1" arrows="1" fold="1" page="1" pageScale="1" pageWidth="827" pageHeight="1169" math="0" shadow="0">
      <root>
        <mxCell id="0" />
        <mxCell id="1" parent="0" />
        <mxCell id="YptnQro_dltt2DGB8j8w-19" value="" style="endArrow=none;html=1;rounded=0;" edge="1" parent="1">
          <mxGeometry width="50" height="50" relative="1" as="geometry">
            <mxPoint x="170" y="450" as="sourcePoint" />
            <mxPoint x="220" y="400" as="targetPoint" />
          </mxGeometry>
        </mxCell>
        <mxCell id="YptnQro_dltt2DGB8j8w-20" value="1" style="text;html=1;align=center;verticalAlign=middle;resizable=0;points=[];autosize=1;strokeColor=none;fillColor=none;" vertex="1" parent="1">
          <mxGeometry x="140" y="450" width="30" height="30" as="geometry" />
        </mxCell>
        <mxCell id="YptnQro_dltt2DGB8j8w-21" value="2" style="text;html=1;align=center;verticalAlign=middle;resizable=0;points=[];autosize=1;strokeColor=none;fillColor=none;" vertex="1" parent="1">
          <mxGeometry x="220" y="370" width="30" height="30" as="geometry" />
        </mxCell>
        <mxCell id="YptnQro_dltt2DGB8j8w-22" value="" style="endArrow=none;html=1;rounded=0;" edge="1" parent="1">
          <mxGeometry width="50" height="50" relative="1" as="geometry">
            <mxPoint x="250" y="385" as="sourcePoint" />
            <mxPoint x="330" y="385" as="targetPoint" />
          </mxGeometry>
        </mxCell>
        <mxCell id="YptnQro_dltt2DGB8j8w-23" value="2" style="text;html=1;align=center;verticalAlign=middle;whiteSpace=wrap;rounded=0;" vertex="1" parent="1">
          <mxGeometry x="330" y="370" width="30" height="30" as="geometry" />
        </mxCell>
        <mxCell id="YptnQro_dltt2DGB8j8w-24" value="" style="endArrow=none;html=1;rounded=0;" edge="1" parent="1">
          <mxGeometry width="50" height="50" relative="1" as="geometry">
            <mxPoint x="360" y="384.76" as="sourcePoint" />
            <mxPoint x="440" y="384.76" as="targetPoint" />
          </mxGeometry>
        </mxCell>
        <mxCell id="YptnQro_dltt2DGB8j8w-25" value="2" style="text;html=1;align=center;verticalAlign=middle;resizable=0;points=[];autosize=1;strokeColor=none;fillColor=none;" vertex="1" parent="1">
          <mxGeometry x="440" y="370" width="30" height="30" as="geometry" />
        </mxCell>
        <mxCell id="YptnQro_dltt2DGB8j8w-26" value="" style="endArrow=none;html=1;rounded=0;" edge="1" parent="1">
          <mxGeometry width="50" height="50" relative="1" as="geometry">
            <mxPoint x="470" y="380" as="sourcePoint" />
            <mxPoint x="520" y="330" as="targetPoint" />
          </mxGeometry>
        </mxCell>
        <mxCell id="YptnQro_dltt2DGB8j8w-27" value="3" style="text;html=1;align=center;verticalAlign=middle;whiteSpace=wrap;rounded=0;" vertex="1" parent="1">
          <mxGeometry x="520" y="300" width="30" height="30" as="geometry" />
        </mxCell>
        <mxCell id="YptnQro_dltt2DGB8j8w-28" value="" style="endArrow=none;html=1;rounded=0;" edge="1" parent="1">
          <mxGeometry width="50" height="50" relative="1" as="geometry">
            <mxPoint x="550" y="300" as="sourcePoint" />
            <mxPoint x="600" y="250" as="targetPoint" />
          </mxGeometry>
        </mxCell>
        <mxCell id="YptnQro_dltt2DGB8j8w-29" value="4" style="text;html=1;align=center;verticalAlign=middle;whiteSpace=wrap;rounded=0;" vertex="1" parent="1">
          <mxGeometry x="600" y="220" width="30" height="30" as="geometry" />
        </mxCell>
        <mxCell id="YptnQro_dltt2DGB8j8w-37" value="单调中间有平坡：" style="text;html=1;align=center;verticalAlign=middle;resizable=0;points=[];autosize=1;strokeColor=none;fillColor=none;" vertex="1" parent="1">
          <mxGeometry x="20" y="320" width="120" height="30" as="geometry" />
        </mxCell>
        <mxCell id="YptnQro_dltt2DGB8j8w-39" value="1" style="text;html=1;align=center;verticalAlign=middle;resizable=0;points=[];autosize=1;strokeColor=none;fillColor=none;" vertex="1" parent="1">
          <mxGeometry x="116" y="548" width="30" height="30" as="geometry" />
        </mxCell>
        <mxCell id="YptnQro_dltt2DGB8j8w-40" value="" style="endArrow=none;html=1;rounded=0;entryX=0;entryY=0.8;entryDx=0;entryDy=0;entryPerimeter=0;" edge="1" parent="1" target="YptnQro_dltt2DGB8j8w-41">
          <mxGeometry width="50" height="50" relative="1" as="geometry">
            <mxPoint x="141" y="548" as="sourcePoint" />
            <mxPoint x="191" y="498" as="targetPoint" />
          </mxGeometry>
        </mxCell>
        <mxCell id="YptnQro_dltt2DGB8j8w-41" value="2" style="text;html=1;align=center;verticalAlign=middle;resizable=0;points=[];autosize=1;strokeColor=none;fillColor=none;" vertex="1" parent="1">
          <mxGeometry x="201" y="480" width="30" height="30" as="geometry" />
        </mxCell>
        <mxCell id="YptnQro_dltt2DGB8j8w-42" value="" style="endArrow=none;html=1;rounded=0;exitX=1.133;exitY=0.533;exitDx=0;exitDy=0;exitPerimeter=0;" edge="1" parent="1" source="YptnQro_dltt2DGB8j8w-41">
          <mxGeometry width="50" height="50" relative="1" as="geometry">
            <mxPoint x="301" y="510" as="sourcePoint" />
            <mxPoint x="331" y="496" as="targetPoint" />
          </mxGeometry>
        </mxCell>
        <mxCell id="YptnQro_dltt2DGB8j8w-43" value="2" style="text;html=1;align=center;verticalAlign=middle;resizable=0;points=[];autosize=1;strokeColor=none;fillColor=none;" vertex="1" parent="1">
          <mxGeometry x="331" y="480" width="30" height="30" as="geometry" />
        </mxCell>
        <mxCell id="YptnQro_dltt2DGB8j8w-44" value="" style="endArrow=none;html=1;rounded=0;exitX=1.133;exitY=0.533;exitDx=0;exitDy=0;exitPerimeter=0;" edge="1" parent="1">
          <mxGeometry width="50" height="50" relative="1" as="geometry">
            <mxPoint x="361" y="494.5" as="sourcePoint" />
            <mxPoint x="457" y="494.5" as="targetPoint" />
          </mxGeometry>
        </mxCell>
        <mxCell id="YptnQro_dltt2DGB8j8w-45" value="2" style="text;html=1;align=center;verticalAlign=middle;resizable=0;points=[];autosize=1;strokeColor=none;fillColor=none;" vertex="1" parent="1">
          <mxGeometry x="461" y="480" width="30" height="30" as="geometry" />
        </mxCell>
        <mxCell id="YptnQro_dltt2DGB8j8w-46" value="" style="endArrow=none;html=1;rounded=0;exitX=1.133;exitY=0.533;exitDx=0;exitDy=0;exitPerimeter=0;" edge="1" parent="1">
          <mxGeometry width="50" height="50" relative="1" as="geometry">
            <mxPoint x="491" y="494.5" as="sourcePoint" />
            <mxPoint x="587" y="494.5" as="targetPoint" />
          </mxGeometry>
        </mxCell>
        <mxCell id="YptnQro_dltt2DGB8j8w-47" value="2" style="text;html=1;align=center;verticalAlign=middle;resizable=0;points=[];autosize=1;strokeColor=none;fillColor=none;" vertex="1" parent="1">
          <mxGeometry x="586" y="480" width="30" height="30" as="geometry" />
        </mxCell>
        <mxCell id="YptnQro_dltt2DGB8j8w-48" value="" style="endArrow=none;html=1;rounded=0;entryX=1.1;entryY=0.667;entryDx=0;entryDy=0;entryPerimeter=0;exitX=-0.067;exitY=0.1;exitDx=0;exitDy=0;exitPerimeter=0;" edge="1" parent="1" source="YptnQro_dltt2DGB8j8w-49" target="YptnQro_dltt2DGB8j8w-47">
          <mxGeometry width="50" height="50" relative="1" as="geometry">
            <mxPoint x="661" y="540" as="sourcePoint" />
            <mxPoint x="676" y="541" as="targetPoint" />
          </mxGeometry>
        </mxCell>
        <mxCell id="YptnQro_dltt2DGB8j8w-49" value="1" style="text;html=1;align=center;verticalAlign=middle;resizable=0;points=[];autosize=1;strokeColor=none;fillColor=none;" vertex="1" parent="1">
          <mxGeometry x="681" y="548" width="30" height="30" as="geometry" />
        </mxCell>
        <mxCell id="YptnQro_dltt2DGB8j8w-51" value="上下中间有平坡：" style="text;html=1;align=center;verticalAlign=middle;resizable=0;points=[];autosize=1;strokeColor=none;fillColor=none;" vertex="1" parent="1">
          <mxGeometry x="20" y="510" width="120" height="30" as="geometry" />
        </mxCell>
      </root>
    </mxGraphModel>
  </diagram>
</mxfile>
